<svg xmlns="http://www.w3.org/2000/svg" width="176.953" height="42.559" viewBox="0 0 176.953 42.559">
  <g id="Grupo_17121" data-name="Grupo 17121" transform="translate(-117 -233)">
    <g id="Grupo_2799" data-name="Grupo 2799" transform="translate(171.253 233)">
      <path id="Trazado_9855" data-name="Trazado 9855" d="M1021.592,291.326H1013.5a.776.776,0,0,1-.776-.776V261.867a.776.776,0,0,1,.776-.776h7.87a.776.776,0,0,1,.776.776v3.441a8.918,8.918,0,0,1,3.725-3.615,11.682,11.682,0,0,1,5.751-1.424,11.556,11.556,0,0,1,8.271,3.231q3.4,3.232,3.4,9.256V290.55a.776.776,0,0,1-.776.776h-8.143a.776.776,0,0,1-.776-.776V275.332a6.8,6.8,0,0,0-1.425-4.6,4.879,4.879,0,0,0-3.889-1.643,5.548,5.548,0,0,0-4.272,1.78,6.711,6.711,0,0,0-1.643,4.738V290.55A.776.776,0,0,1,1021.592,291.326Z" transform="translate(-1012.727 -250.742)"/>
      <path id="Trazado_9856" data-name="Trazado 9856" d="M1204.242,291.974a18.87,18.87,0,0,1-12.927-4.754.773.773,0,0,1-.125-1l3.48-5.241a.773.773,0,0,1,1.126-.179,13.249,13.249,0,0,0,8.391,3.237q3.232,0,3.232-1.917,0-1.04-1.643-1.7a.875.875,0,0,1-.219-.055c-.109-.036-.256-.082-.438-.137s-.4-.128-.657-.219-.557-.192-.9-.3-.722-.237-1.123-.384q-3.506-1.259-4.163-1.533-5.643-2.629-5.642-8.216a8.31,8.31,0,0,1,3.4-6.9q3.34-2.683,9.092-2.684a17.409,17.409,0,0,1,10.7,3.487.781.781,0,0,1,.194,1.055l-3.349,5.111a.773.773,0,0,1-1.052.237,12.684,12.684,0,0,0-6.656-2.167,3.618,3.618,0,0,0-1.945.493,1.419,1.419,0,0,0-.794,1.205q0,1.425,2.739,2.191a38.272,38.272,0,0,1,7.121,2.629q5.148,2.521,5.15,7.668a8.974,8.974,0,0,1-3.506,7.285Q1210.212,291.974,1204.242,291.974Z" transform="translate(-1121.86 -250.569)"/>
      <path id="Trazado_9858" data-name="Trazado 9858" d="M1289.408,267.721l2.09,6.269a.77.77,0,0,1-.357.924,18.921,18.921,0,0,1-9.08,2.151q-11.23,0-11.229-12.488V254.061H1268.6a.776.776,0,0,1-.776-.776V246.84a.776.776,0,0,1,.776-.776h2.337v-6.23a.776.776,0,0,1,.478-.716l8.034-3.342a.776.776,0,0,1,1.074.716v9.572h8.7a.776.776,0,0,1,.776.776v6.445a.776.776,0,0,1-.776.776h-8.7v9.366q0,4.82,3.834,4.82a9.573,9.573,0,0,0,3.984-.981A.776.776,0,0,1,1289.408,267.721Z" transform="translate(-1168.839 -235.715)"/>
      <path id="Trazado_9859" data-name="Trazado 9859" d="M1134.589,275.527a23.731,23.731,0,0,1-.229,3.225.775.775,0,0,1-.77.664h-20.912q1.643,4.765,7.4,4.765a16.022,16.022,0,0,0,8.489-2.373.771.771,0,0,1,1.064.279l3.014,5.2a.773.773,0,0,1-.229,1.029,22.4,22.4,0,0,1-12.776,3.754q-8,0-12.38-4.546a15.658,15.658,0,0,1-4.327-11.228,15.367,15.367,0,0,1,4.492-11.338,17.261,17.261,0,0,1,22.786-.493Q1134.588,268.517,1134.589,275.527Zm-15.5-7.394a6.261,6.261,0,0,0-6.518,4.656h12.817a6.18,6.18,0,0,0-2.246-3.423A6.566,6.566,0,0,0,1119.087,268.133Z" transform="translate(-1067.926 -250.828)"/>
    </g>
    <g id="Grupo_2798" data-name="Grupo 2798" transform="translate(117 233)">
      <path id="Trazado_9854" data-name="Trazado 9854" d="M895.859,246.347V233.211a.776.776,0,0,1,.776-.776h8.143a.776.776,0,0,1,.776.776V273.45a.776.776,0,0,1-.776.776H896.91a.776.776,0,0,1-.776-.776V271.6a11.453,11.453,0,0,1-8.436,3.4,13.785,13.785,0,0,1-10.572-4.492,17.42,17.42,0,0,1,0-22.731,13.926,13.926,0,0,1,10.572-4.546A11.391,11.391,0,0,1,895.859,246.347Zm-6.518,19.828a6.553,6.553,0,0,0,4.93-2.054,7.034,7.034,0,0,0,1.972-5.067,6.872,6.872,0,0,0-1.972-4.984,6.6,6.6,0,0,0-4.93-2.027,6.511,6.511,0,0,0-4.93,2.081,6.807,6.807,0,0,0-1.972,4.929,7.129,7.129,0,0,0,1.972,5.094A6.6,6.6,0,0,0,889.341,266.175Z" transform="translate(-872.908 -232.435)"/>
      <path id="Trazado_9857" data-name="Trazado 9857" d="M975.7,322.733a5.457,5.457,0,0,0,4.106-1.71,5.858,5.858,0,0,0,1.642-4.22,5.724,5.724,0,0,0-1.642-4.151,5.494,5.494,0,0,0-4.106-1.688,5.42,5.42,0,0,0-4.106,1.734,5.668,5.668,0,0,0-1.643,4.105,5.937,5.937,0,0,0,1.643,4.243A5.491,5.491,0,0,0,975.7,322.733Z" transform="translate(-932.294 -280.493)" fill="#3958ff"/>
    </g>
  </g>
</svg>
